<svg width="37" height="37" viewBox="0 0 37 37" fill="none" xmlns="http://www.w3.org/2000/svg">
<path fill-rule="evenodd" clip-rule="evenodd" d="M36.3887 22.0673C34.1799 22.5479 31.9623 22.9137 29.8056 23.1902L14.4205 33.1287L9.83934 32.8993L19.9386 25.1032C19.9386 25.1032 19.9254 25.0763 19.9039 25.0286C19.8239 24.8513 19.6299 24.387 19.5793 23.9524C14.2971 24.0864 10.6809 23.7991 10.6809 23.7991C10.6809 23.7991 8.31443 23.7286 5.95908 23.5422L1.96886 25.1028C4.60645 31.7725 11.1165 36.491 18.7295 36.491C27.4532 36.491 34.7287 30.2952 36.3887 22.0673ZM1.35716 23.2723L1.80339 22.9511C1.78349 22.9445 1.76411 22.9379 1.74527 22.9312C1.51929 22.8512 1.34148 22.7643 1.20347 22.6732C1.25135 22.8742 1.3026 23.0739 1.35716 23.2723ZM0.965041 21.4985C1.10923 21.2851 1.28551 21.1424 1.28551 21.1424L0.80957 20.3497C0.849273 20.7364 0.901228 21.1195 0.965041 21.4985ZM36.5261 15.6818L29.1383 16.8266L13.5842 12.6477L11.0114 13.1626L18.2208 16.2694L20.0544 18.2341L8.94702 19.9552L1.35904 14.7978L1.08482 14.8432C2.77238 6.65096 10.031 0.490967 18.7295 0.490967C27.7224 0.490967 35.1762 7.07496 36.5261 15.6818Z" fill="white"/>
</svg>
